<svg id="filesIcon" xmlns="http://www.w3.org/2000/svg" viewBox="0 0 224 224"><defs><style>.cls-1{fill:#fff;}.cls-1,.cls-2{stroke:#ccc;stroke-miterlimit:10;stroke-width:8px;}.cls-2{fill:none;}</style></defs><title>filesIcons</title><circle id="circle" class="cls-1" cx="112" cy="112" r="108"/><g id="ovals"><path class="cls-1" d="M449,260.14c0,7.58-4.61,13.86-10.29,13.86H351.29c-5.68,0-10.29-6.28-10.29-13.86v-3.43c0-7.57,4.61-13.71,10.29-13.71h87.42c5.68,0,10.29,6.14,10.29,13.71Z" transform="translate(-284 -194)"/><path class="cls-1" d="M449,307.71c0,7.58-4.61,13.29-10.29,13.29H351.29c-5.68,0-10.29-5.71-10.29-13.29v-3.42c0-7.58,4.61-13.29,10.29-13.29h87.42c5.68,0,10.29,5.71,10.29,13.29Z" transform="translate(-284 -194)"/><path class="cls-1" d="M449,355.29c0,7.57-4.61,13.71-10.29,13.71H351.29c-5.68,0-10.29-6.14-10.29-13.71v-3.43c0-7.58,4.61-13.86,10.29-13.86h87.42c5.68,0,10.29,6.28,10.29,13.86Z" transform="translate(-284 -194)"/></g><g id="details"><line class="cls-2" x1="96" y1="64" x2="150" y2="64"/><line class="cls-2" x1="96" y1="112" x2="150" y2="112"/><line class="cls-2" x1="96" y1="160" x2="150" y2="160"/></g></svg>