<svg id="magnifyingGlass" xmlns="http://www.w3.org/2000/svg" viewBox="0 0 358.43 358.43"><defs><style>.cls-1{fill:#fff;stroke:#ccc;stroke-miterlimit:10;stroke-width:8px;}</style></defs><title>Untitled-2</title><g id="mainGlas"><circle class="cls-1" cx="179.22" cy="179.22" r="175.22"/><circle class="cls-1" cx="179.22" cy="179.22" r="175.22"/><circle class="cls-1" cx="121.37" cy="126.45" r="56.27"/><path class="cls-1" d="M475,367.48a16.2,16.2,0,0,1-.1,22.84h0a16.2,16.2,0,0,1-22.84.1L350.27,288.66c-6.88-6.89,5.38-5.38,11.65-11.66h0c6.28-6.27,4.41-18.17,11.3-11.29Z" transform="translate(-197.7 -107.7)"/><path class="cls-1" d="M373.22,311.6l-23-22.94c-6.88-6.89,5.38-5.38,11.65-11.66h0c6.28-6.27,4.41-18.17,11.3-11.29l22.94,23Z" transform="translate(-197.7 -107.7)"/></g><g id="details"><path id="detail" class="cls-1" d="M293.88,259.33a35.62,35.62,0,0,1,0-50.37" transform="translate(-197.7 -107.7)"/></g></svg>